<svg xmlns="http://www.w3.org/2000/svg" viewBox="0 0 431 422.58"><defs><style>.cls-1{fill:#0089ef;}.cls-2{fill:#fff;}.cls-3{fill:#e40059;}.cls-4{fill:#0977ba;}</style></defs><g id="Layer_2" data-name="Layer 2"><g id="Layer_1-2" data-name="Layer 1"><circle class="cls-1" cx="206.6" cy="61.67" r="61.67"/><path class="cls-2" d="M227.93,18.67H216.84c-12.46,0-20.52,8.26-20.52,21.05v9.71H185.17a1.75,1.75,0,0,0-1.75,1.74V65.23A1.75,1.75,0,0,0,185.17,67h11.15v35.49a1.75,1.75,0,0,0,1.75,1.74h14.55a1.74,1.74,0,0,0,1.74-1.74V67h13a1.74,1.74,0,0,0,1.75-1.74V51.16a1.74,1.74,0,0,0-.52-1.23,1.7,1.7,0,0,0-1.23-.51h-13V41.19c0-4,.94-6,6.09-6h7.47a1.73,1.73,0,0,0,1.74-1.74V20.42a1.76,1.76,0,0,0-1.74-1.75Z"/><path class="cls-3" d="M134.67,314.44l1.87,1.68a53.08,53.08,0,0,0-8.84,29.42v53.34H0V352.19a46.68,46.68,0,0,1,45.45-46.67A40.12,40.12,0,0,0,101.56,314a40.67,40.67,0,0,0,7.23-6.89,11.55,11.55,0,0,1,1.31-1.49,46.42,46.42,0,0,1,24.57,8.85Z"/><path class="cls-3" d="M118.37,227.54v21.08A41.32,41.32,0,0,1,77.05,290h-.23a41.32,41.32,0,0,1-41.33-41.32h0V227.54a41.32,41.32,0,0,1,41.33-41.32H77a41.33,41.33,0,0,1,41.33,41.32Z"/><path class="cls-3" d="M431,352.19v46.69H303.48V345.54a53.08,53.08,0,0,0-9-29.68,46.42,46.42,0,0,1,28.11-10.34A40.12,40.12,0,0,0,378.7,314a40.67,40.67,0,0,0,7.23-6.89,11.55,11.55,0,0,1,1.31-1.49A46.67,46.67,0,0,1,431,352.19Z"/><path class="cls-3" d="M395.51,227.54v21.08A41.32,41.32,0,0,1,354.19,290H354a41.32,41.32,0,0,1-41.33-41.32h0V227.54A41.32,41.32,0,0,1,354,186.22h.22a41.33,41.33,0,0,1,41.33,41.32Z"/><rect class="cls-1" x="168.25" y="155.92" width="94.69" height="118.51" rx="47.22"/><path class="cls-1" d="M294.48,315.86a53.08,53.08,0,0,1,9,29.68v77H127.7v-77a53.33,53.33,0,0,1,51.93-53.32A45.84,45.84,0,0,0,252,294a12.76,12.76,0,0,1,1.5-1.7,53.27,53.27,0,0,1,41,23.56Z"/><path class="cls-4" d="M198.25,227.22V203.14a47.23,47.23,0,0,1,32.35-44.81,47.29,47.29,0,0,0-14.87-2.4h-.25a47.22,47.22,0,0,0-47.22,47.21h0v24.08a47.21,47.21,0,0,0,47.2,47.21h.27A47.29,47.29,0,0,0,230.6,272,47.23,47.23,0,0,1,198.25,227.22Z"/><path class="cls-4" d="M179.63,292.22a53.33,53.33,0,0,0-51.93,53.32v77h30v-77a53.28,53.28,0,0,1,27.76-46.8,46.21,46.21,0,0,1-5.83-6.52Z"/></g></g></svg>