<svg id="Capa_1" enable-background="new 0 0 512 512" height="512" viewBox="0 0 512 512" width="512" xmlns="http://www.w3.org/2000/svg"><g><g><path d="m491.187 388.163h-470.374c-11.495 0-20.813-9.319-20.813-20.813v-333.009c0-11.495 9.318-20.813 20.813-20.813h470.374c11.495 0 20.813 9.318 20.813 20.813v333.009c0 11.494-9.318 20.813-20.813 20.813z" fill="#62a4fb"/></g><g><path d="m491.187 13.528h-29.138c11.495 0 20.813 9.318 20.813 20.813v333.009c0 11.495-9.318 20.813-20.813 20.813h29.138c11.495 0 20.813-9.318 20.813-20.813v-333.009c0-11.494-9.318-20.813-20.813-20.813z" fill="#5392f9"/></g><g><path d="m33.301 344.56v-287.429c0-5.69 4.612-10.302 10.302-10.302h424.795c5.69 0 10.302 4.612 10.302 10.302v287.429c0 5.69-4.612 10.302-10.302 10.302h-424.795c-5.69 0-10.302-4.612-10.302-10.302z" fill="#91dafa"/></g><g><path d="m299.71 80.13v241.43h-35.38l-81.18-46.52-81.17 46.52h-25.08c-5.69 0-10.3-4.61-10.3-10.3v-220.83c0-5.69 4.61-10.3 10.3-10.3z" fill="#e175a5"/></g><g><path d="m299.707 288.26v-208.13h135.389c5.69 0 10.302 4.612 10.302 10.302v197.828z" fill="#e6f7fe"/></g><g><path d="m339.252 248.715h33.301v112.39h-33.301z" fill="#9facba" transform="matrix(0 1 -1 0 660.813 -50.992)"/></g><g><path d="m412.098 321.561v-33.301h33.301v22.999c0 5.69-4.612 10.302-10.302 10.302z" fill="#b7e546"/></g><g><path d="m183.154 465.171 10.407-77.008h124.878l10.407 77.008z" fill="#4172ca"/></g><g><path d="m131.122 490.146v-16.65c0-4.598 3.727-8.325 8.325-8.325h233.106c4.598 0 8.325 3.727 8.325 8.325v16.65c0 4.598-3.727 8.325-8.325 8.325h-233.106c-4.598.001-8.325-3.727-8.325-8.325z" fill="#62a4fb"/></g><g><path d="m372.553 465.171h-29.138c4.598 0 8.325 3.727 8.325 8.325v16.65c0 4.598-3.727 8.325-8.325 8.325h29.138c4.598 0 8.325-3.727 8.325-8.325v-16.65c0-4.598-3.727-8.325-8.325-8.325z" fill="#5392f9"/></g><g><path d="m468.397 46.829h-16.755v308.033h16.755c5.69 0 10.302-4.612 10.302-10.302v-287.429c0-5.689-4.612-10.302-10.302-10.302z" fill="#75cff9"/></g><g><g><path d="m101.984 267.447v54.114h162.341v-54.114c0-27.587-22.364-49.951-49.951-49.951h-62.439c-27.587 0-49.951 22.364-49.951 49.951z" fill="#f8e883"/></g><g><path d="m214.374 217.496h-27.057c27.587 0 49.951 22.364 49.951 49.951v54.114h27.057v-54.114c0-27.587-22.364-49.951-49.951-49.951z" fill="#f5de46"/></g><g><circle cx="183.154" cy="167.545" fill="#fed2a4" r="49.951"/></g><g><path d="m206.639 123.456c3.737 7.001 5.862 14.993 5.862 23.484 0 27.587-22.364 49.951-49.951 49.951-8.491 0-16.483-2.125-23.484-5.862 8.405 15.747 24.993 26.467 44.089 26.467 27.587 0 49.951-22.364 49.951-49.951 0-19.097-10.72-35.684-26.467-44.089z" fill="#ffbd86"/></g></g><g><path d="m412.098 120.931h-79.09c-4.143 0-7.5-3.358-7.5-7.5s3.357-7.5 7.5-7.5h79.09c4.143 0 7.5 3.358 7.5 7.5s-3.358 7.5-7.5 7.5z" fill="#62a4fb"/></g><g><path d="m380.878 154.232h-47.87c-4.143 0-7.5-3.358-7.5-7.5s3.357-7.5 7.5-7.5h47.87c4.143 0 7.5 3.358 7.5 7.5s-3.357 7.5-7.5 7.5z" fill="#62a4fb"/></g><g><path d="m412.098 187.533h-79.09c-4.143 0-7.5-3.358-7.5-7.5s3.357-7.5 7.5-7.5h79.09c4.143 0 7.5 3.358 7.5 7.5s-3.358 7.5-7.5 7.5z" fill="#62a4fb"/></g><g><path d="m380.878 220.834h-47.87c-4.143 0-7.5-3.358-7.5-7.5s3.357-7.5 7.5-7.5h47.87c4.143 0 7.5 3.358 7.5 7.5s-3.357 7.5-7.5 7.5z" fill="#62a4fb"/></g><g><path d="m412.098 254.134h-79.09c-4.143 0-7.5-3.358-7.5-7.5s3.357-7.5 7.5-7.5h79.09c4.143 0 7.5 3.358 7.5 7.5s-3.358 7.5-7.5 7.5z" fill="#62a4fb"/></g><g fill="#dbb72b"><path d="m229.081 280.76c-4.143 0-7.5 3.358-7.5 7.5v33.301h15v-33.301c0-4.142-3.357-7.5-7.5-7.5z"/><path d="m137.228 280.76c-4.143 0-7.5 3.358-7.5 7.5v33.301h15v-33.301c0-4.142-3.358-7.5-7.5-7.5z"/></g></g></svg>